<svg xmlns="http://www.w3.org/2000/svg" role="img" viewBox="0 0 820 290">

	<rect x="20" y="30" rx="10" ry="10" width="80" height="50" style="fill:white;stroke:black;stroke-width:1;opacity:0.5" />
	<text x="40" y="60">Indice</text>
	<rect x="120" y="30" rx="10" ry="10" width="80" height="50" style="fill:white;stroke:black;stroke-width:1;opacity:0.5" />
	<text x="130" y="60">
		<tspan x="140" y="47">Datos</tspan>
    	<tspan x="125" y="67">personales</tspan>
    </text>
	<rect x="220" y="30" rx="10" ry="10" width="80" height="50" style="fill:white;stroke:black;stroke-width:1;opacity:0.5" />
	<text x="232" y="60">Contacto</text>
	<rect x="320" y="30" rx="10" ry="10" width="80" height="50" style="fill:white;stroke:black;stroke-width:1;opacity:0.5" />
	<text x="330" y="60">
		<tspan x="340" y="47">Datos</tspan>
    	<tspan x="322" y="67">academicos</tspan>
    </text>
	<rect x="420" y="30" rx="10" ry="10" width="80" height="50" style="fill:white;stroke:black;stroke-width:1;opacity:0.5" />
	<text x="430" y="60">
		<tspan x="441" y="47">Otros</tspan>
    	<tspan x="434" y="67">estudios</tspan>
	</text>
	<rect x="520" y="30" rx="10" ry="10" width="80" height="50" style="fill:white;stroke:black;stroke-width:1;opacity:0.5" />
	<text x="530" y="60">
		<tspan x="540" y="47">Vida</tspan>
    	<tspan x="535" y="67">laboral</tspan>
	</text>
	<rect x="620" y="30" rx="10" ry="10" width="80" height="50" style="fill:white;stroke:black;stroke-width:1;opacity:0.5" />
	<text x="628" y="60">Aficiones</text>
	<rect x="720" y="30" rx="10" ry="10" width="80" height="50" style="fill:white;stroke:black;stroke-width:1;opacity:0.5" />
	<text x="741" y="60">Otros</text>

	<rect x="620" y="130" rx="10" ry="10" width="80" height="50" style="fill:white;stroke:black;stroke-width:1;opacity:0.5" />
	<text x="630" y="160">fractales</text>

	<rect x="620" y="230" rx="10" ry="10" width="80" height="50" style="fill:white;stroke:black;stroke-width:1;opacity:0.5" />
	<text x="640" y="260">CV</text>
	<rect x="720" y="230" rx="10" ry="10" width="80" height="50" style="fill:white;stroke:black;stroke-width:1;opacity:0.5" />
	<text x="725" y="260">Mapa Web</text>


	<line x1="60" y1="10" x2="760" y2="10" style="stroke:rgb(0,0,0);stroke-width:2" />

	<line x1="60" y1="10" x2="60" y2="30" style="stroke:rgb(0,0,0);stroke-width:2" />
	<line x1="160" y1="10" x2="160" y2="30" style="stroke:rgb(0,0,0);stroke-width:2" />
	<line x1="260" y1="10" x2="260" y2="30" style="stroke:rgb(0,0,0);stroke-width:2" />
	<line x1="360" y1="10" x2="360" y2="30" style="stroke:rgb(0,0,0);stroke-width:2" />
	<line x1="460" y1="10" x2="460" y2="30" style="stroke:rgb(0,0,0);stroke-width:2" />
	<line x1="560" y1="10" x2="560" y2="30" style="stroke:rgb(0,0,0);stroke-width:2" />
	<line x1="660" y1="10" x2="660" y2="30" style="stroke:rgb(0,0,0);stroke-width:2" />
	<line x1="760" y1="10" x2="760" y2="30" style="stroke:rgb(0,0,0);stroke-width:2" />


	<line x1="660" y1="80" x2="660" y2="130" style="stroke:rgb(0,0,0);stroke-width:2" />
	<line x1="760" y1="80" x2="760" y2="230" style="stroke:rgb(0,0,0);stroke-width:2" />

	<line x1="660" y1="210" x2="660" y2="230" style="stroke:rgb(0,0,0);stroke-width:2" />
	<line x1="660" y1="210" x2="760" y2="210" style="stroke:rgb(0,0,0);stroke-width:2" />
	
</svg>