<svg xmlns="http://www.w3.org/2000/svg" role="img" viewBox="0 0 380 210">


	<rect x="20" y="5" rx="10" ry="10" width="140" height="20" style="fill:white;stroke:black;stroke-width:1;opacity:0.5" />
	<text x="69" y="20">Indice</text>
	<rect x="20" y="30" rx="10" ry="10" width="140" height="20" style="fill:white;stroke:black;stroke-width:1;opacity:0.5" />
	<text x="36" y="45">Datos personales</text>
	<rect x="20" y="55" rx="10" ry="10" width="140" height="20" style="fill:white;stroke:black;stroke-width:1;opacity:0.5" />
	<text x="59" y="70">Contacto</text>
	<rect x="20" y="80" rx="10" ry="10" width="140" height="20" style="fill:white;stroke:black;stroke-width:1;opacity:0.5" />
	<text x="33" y="95">Datos academicos</text>
	<rect x="20" y="105" rx="10" ry="10" width="140" height="20" style="fill:white;stroke:black;stroke-width:1;opacity:0.5" />
	<text x="40" y="120">Otros estudios</text>
	<rect x="20" y="130" rx="10" ry="10" width="140" height="20" style="fill:white;stroke:black;stroke-width:1;opacity:0.5" />
	<text x="47" y="145">Vida laboral</text>
	<rect x="20" y="155" rx="10" ry="10" width="140" height="20" style="fill:white;stroke:black;stroke-width:1;opacity:0.5" />
	<text x="57" y="170">Aficiones</text>
	<rect x="20" y="180" rx="10" ry="10" width="140" height="20" style="fill:white;stroke:black;stroke-width:1;opacity:0.5" />
	<text x="72" y="195">Otros</text>

	<rect x="180" y="155" rx="10" ry="10" width="80" height="20" style="fill:white;stroke:black;stroke-width:1;opacity:0.5" />
	<text x="193" y="170">fractales</text>

	<rect x="280" y="155" rx="10" ry="10" width="80" height="20" style="fill:white;stroke:black;stroke-width:1;opacity:0.5" />
	<text x="305" y="170">CV</text>
	<rect x="280" y="180" rx="10" ry="10" width="80" height="20" style="fill:white;stroke:black;stroke-width:1;opacity:0.5" />
	<text x="285" y="195">Mapa Web</text>

	<line x1="10" y1="2" x2="10" y2="190" style="stroke:rgb(0,0,0);stroke-width:1" />

	<line x1="10" y1="15" x2="20" y2="15" style="stroke:rgb(0,0,0);stroke-width:1" />
	<line x1="10" y1="40" x2="20" y2="40" style="stroke:rgb(0,0,0);stroke-width:1" />
	<line x1="10" y1="65" x2="20" y2="65" style="stroke:rgb(0,0,0);stroke-width:1" />
	<line x1="10" y1="90" x2="20" y2="90" style="stroke:rgb(0,0,0);stroke-width:1" />
	<line x1="10" y1="115" x2="20" y2="115" style="stroke:rgb(0,0,0);stroke-width:1" />
	<line x1="10" y1="140" x2="20" y2="140" style="stroke:rgb(0,0,0);stroke-width:1" />
	<line x1="10" y1="165" x2="20" y2="165" style="stroke:rgb(0,0,0);stroke-width:1" />
	<line x1="10" y1="190" x2="20" y2="190" style="stroke:rgb(0,0,0);stroke-width:1" />


	<line x1="160" y1="165" x2="180" y2="165" style="stroke:rgb(0,0,0);stroke-width:1" />

	<line x1="160" y1="190" x2="280" y2="190" style="stroke:rgb(0,0,0);stroke-width:1" />
	<line x1="265" y1="165" x2="265" y2="190" style="stroke:rgb(0,0,0);stroke-width:1" />
	<line x1="265" y1="165" x2="280" y2="165" style="stroke:rgb(0,0,0);stroke-width:1" />


</svg>